<?xml version="1.0" encoding="utf-8"?>
<!-- Generator: Adobe Illustrator 16.0.0, SVG Export Plug-In . SVG Version: 6.00 Build 0)  -->
<!DOCTYPE svg PUBLIC "-//W3C//DTD SVG 1.0//EN" "http://www.w3.org/TR/2001/REC-SVG-20010904/DTD/svg10.dtd">
<svg version="1.0" id="Layer_1" xmlns="http://www.w3.org/2000/svg" xmlns:xlink="http://www.w3.org/1999/xlink" x="0px" y="0px"
	 width="417px" height="269px" viewBox="0 0 417 269" enable-background="new 0 0 417 269" xml:space="preserve">
<path fill-rule="evenodd" clip-rule="evenodd" d="M173.525,110.895c2.61,13.24-0.668,24.744-10.483,34.095
	c-17.005,16.2-45.374,13.447-58.963-5.602c-13.23-18.546-5.789-44.279,15.811-53.866c4.315-1.915,9.147-2.664,13.856-3.541
	c-18.498,7.516-23.545,23.179-19.929,36.126c3.769,13.491,17.967,22.369,33.227,20.755
	C161.454,137.338,172.607,125.446,173.525,110.895z"/>
<path fill-rule="evenodd" clip-rule="evenodd" d="M302.349,110.273c4.613,11.921-0.452,28.533-11.08,37.3
	c-13.298,10.97-32.338,12.447-46.535,3.61c-13.699-8.527-20.238-24.097-16.699-39.331c3.431-14.765,16.774-25.763,29.875-27.541
	c-15.428,11.914-19.935,23.972-13.886,37.153c5.734,12.494,19.896,19.808,33.306,17.201
	C291.944,135.823,301.578,125.076,302.349,110.273z"/>
<path d="M398.149,172.279 M383.75,188.5c-34,37-86.372,51.206-136.654,45.338l-12.702-4.758c-0.219-0.264-0.548-0.498-1.031-0.697
	c-1.889-0.779-3.305-2.782-5.877-0.729c-6.061,4.837-10.995,10.618-14.706,17.311c-3.923,7.076-7.27,14.471-10.565,21.117
	c-2.426-5.27-4.901-11.29-7.91-17.028c-4.403-8.397-9.862-16.038-17.571-21.84c-1.675-1.26-3.083-1.575-5.16-0.66
	c-4.245,1.871-8.585,3.643-13.046,4.887c-17.646,4.922-35.469,3.111-53.24,0.823c-4.746-0.611-9.384-2.053-14.28-3.161
	l-15.928-6.435c-16.356-7.335-30.5-17.69-42.19-31.337c-14.197-16.574-23.679-35.429-27.576-56.979
	c-0.729-4.028-1.309-8.083-1.958-12.125c0-3.178,0-6.357,0-9.535c0.234-1.018,0.603-2.024,0.682-3.054
	c1.505-19.479,7.982-37.234,19.623-52.813c21.871-29.27,51.601-44.876,87.651-48.991c5.129-0.586,10.246-1.289,15.368-1.938
	c2.966,0,5.933,0,8.9,0c0.801,0.219,1.59,0.542,2.407,0.64c5.878,0.703,11.792,1.161,17.638,2.069
	c18.498,2.872,35.929,8.769,51.603,19.199c2.321,1.544,3.699,1.233,5.795-0.189c8.882-6.03,18.511-10.554,28.697-13.992
	c12.15-4.101,24.722-5.391,37.393-6.515c19.422-1.724,38.239,0.658,56.411,7.604c21.892,8.367,39.941,21.909,53.845,40.874
	c12.516,17.07,19.622,36.205,21.22,57.237c1.592,20.944-2.633,40.83-12.438,59.457L383.75,188.5z M180.993,119.587
	c0.085-13.096-4.988-23.997-14.88-32.332c-17.35-14.618-41.529-14.719-59.373-0.683c-16.536,13.006-20.587,36.977-9.219,54.542
	c10.596,16.373,28.942,23.65,49.191,19.514C166.235,156.64,180.833,139.158,180.993,119.587z M220.518,120.347
	c-0.066,9.443,2.842,17.935,8.598,25.353c17.131,22.08,49.538,23.903,69.366,3.995c14.282-14.341,16.231-36.937,4.187-53.142
	c-10.777-14.498-25.516-20.264-43.367-18.327C237.72,80.569,220.646,99.129,220.518,120.347z M386.801,113.829
	c-0.22-3.661-0.284-6.8-0.616-9.911c-1.7-15.933-7.135-30.416-17.235-42.957c-5.092-6.323-7.658-6.915-15.388-4.452
	c-16.723,5.328-31.279,14.283-44.138,26.156c-1.911,1.765-1.376,2.831,0.133,4.382c5.653,5.812,9.458,12.694,11.419,20.566
	c1.122,4.504,1.081,4.517,5.547,3.912c0.523-0.071,1.041-0.188,1.562-0.272c14.207-2.283,28.45-2.587,42.695-0.505
	C375.875,111.494,380.906,112.681,386.801,113.829z M94.92,83.266C80.8,69.757,64.837,59.842,46.062,54.541
	c-3.786-1.068-6.589-0.322-9.24,2.177c-1.078,1.016-2.183,2.03-3.103,3.183c-11.65,14.6-17.056,31.423-17.775,49.931
	c-0.104,2.654,0.884,2.791,3.225,2.402c8.748-1.452,17.527-3.493,26.327-3.663c10.626-0.205,21.292,1.18,31.923,2.083
	c2.349,0.2,3.251-0.226,4.015-2.611c1.535-4.795,3.287-9.601,5.658-14.022C89.105,90.266,92.114,87.044,94.92,83.266z
	 M41.963,187.461c1.546-1.97,2.52-3.315,3.6-4.568c3.174-3.683,6.26-7.454,9.617-10.965c8.583-8.98,18.87-15.599,29.883-21.196
	c3.811-1.937,3.77-2.131,1.74-5.667c-4.172-7.261-6.952-14.954-6.913-23.44c0.01-2.151-0.97-2.76-2.889-2.748
	c-6.66,0.042-13.351-0.374-19.974,0.124c-12.509,0.94-24.648,3.671-36.111,9.012c-1.95,0.909-3.157,2.174-3.141,4.292
	c0.026,3.361-0.171,6.792,0.422,10.068c1.987,10.982,6.636,20.95,12.715,30.209C34.185,177.571,38.018,182.19,41.963,187.461z
	 M360.16,188.169c0.972-0.906,1.609-1.417,2.15-2.016c7.293-8.081,13.087-17.155,17.308-27.161
	c3.335-7.905,6.165-15.99,5.435-24.843c-0.214-2.586-1.217-4.154-3.714-5.267c-8.955-3.99-18.253-6.93-27.964-7.828
	c-9.23-0.854-18.555-0.688-27.838-0.987c-2.067-0.066-2.668,0.924-2.719,2.918c-0.064,2.52-0.169,5.157-0.943,7.518
	c-2.093,6.377-4.549,12.636-7.183,19.82C332.53,158.642,348.329,170.873,360.16,188.169z M228.667,166.132
	c-0.162-0.41-0.264-1.829-1.002-2.357c-6.45-4.616-10.765-11.012-14.752-17.624c-3.041-5.045-7.399-7.526-13.095-7.417
	c-5.551,0.107-9.153,2.989-11.856,8.04c-3.012,5.627-6.95,10.8-10.857,15.883c-1.136,1.478-1.884,2.587-1.568,4.394
	c3.41,19.546,10.255,37.697,21.967,53.844c3.403,4.692,8.785,4.391,11.583-0.626c3.292-5.905,6.601-11.812,9.586-17.875
	C224.189,191.193,227.442,179.314,228.667,166.132z M347.861,41.229c-1.205-0.984-1.98-1.681-2.82-2.293
	c-10.236-7.466-21.302-13.462-33.344-17.331c-6.385-2.052-13.105-3.177-19.751-4.254c-3.95-0.641-7.219,0.933-8.802,5.078
	c-0.863,2.264-2.057,4.4-3.038,6.623c-4.644,10.521-7.819,21.438-8.556,32.962c-0.313,4.894-0.195,5.018,4.545,5.541
	c8.302,0.915,15.812,3.899,22.464,8.814c2.393,1.768,3.562,1.187,5.532-0.529c10.121-8.81,20.296-17.566,30.691-26.048
	C338.67,46.619,343.206,44.24,347.861,41.229z M54.698,40.183c3.507,2.185,6.583,3.994,9.548,5.969
	c12.549,8.357,24.004,18.037,34.52,28.829c1.658,1.701,2.981,2.108,5.097,0.477c6.593-5.081,14.206-7.858,22.403-9.01
	c5.094-0.715,5.26-0.806,4.844-5.922c-1.135-13.955-5.612-26.833-12.766-38.786c-0.825-1.378-2.537-2.679-4.078-3.07
	c-2.406-0.611-5.046-0.734-7.536-0.504c-10.413,0.964-20.251,4.09-29.713,8.452C69.235,30.204,61.811,34.389,54.698,40.183z
	 M287.431,222.868c0.92,0,1.44,0.069,1.938-0.01c16.166-2.545,31.751-6.959,46.119-14.968c3.185-1.776,6.014-4.246,8.832-6.604
	c1.759-1.472,1.888-3.301,0.369-5.3c-3.258-4.29-6.219-8.81-9.562-13.03c-7.17-9.051-14.866-17.594-24.386-24.327
	c-2.186-1.546-3.577-1.693-5.523,0.506c-5.417,6.122-12.064,10.577-19.873,13.121c-4.753,1.548-4.779,1.04-3.227,6.42
	c3.897,13.5,6.027,27.208,5.318,41.293C287.395,220.799,287.431,221.633,287.431,222.868z M115.228,221.744
	c0.36-0.845,0.518-1.039,0.51-1.227c-0.068-1.581-0.216-3.159-0.247-4.741c-0.271-13.642,1.794-26.966,5.644-40.019
	c0.69-2.34,0.272-3.447-2.185-4.101c-6.981-1.857-12.935-5.613-18.336-10.345c-2.058-1.803-4.372-4.877-6.403-4.75
	c-2.504,0.158-4.836,3.054-7.241,4.768c-0.085,0.061-0.153,0.146-0.233,0.214c-11.504,9.712-20.586,21.502-29.089,33.802
	c-1.1,1.592-1.154,3.045,0.267,4.206c3.009,2.459,5.931,5.159,9.297,7.023c12.497,6.922,26.092,10.809,40.001,13.693
	C109.873,220.821,112.557,221.256,115.228,221.744z M139.504,65.045c0.525,0.054,1.146,0.127,1.768,0.181
	c9.082,0.784,17.693,3.18,25.436,8.055c2.174,1.369,3.257,1.256,4.927-0.672c7.214-8.333,12.044-18.069,16.878-27.827
	c5.014-10.118,4.549-11.472-5.809-16.095c-0.097-0.043-0.199-0.072-0.3-0.104c-10.543-3.333-21.005-6.965-31.665-9.87
	c-5.081-1.385-10.539-1.389-15.736-2.008c1.599,8.521,3.625,16.202,4.34,24.003C140.07,48.643,139.504,56.697,139.504,65.045z
	 M268.289,18.22c-0.263-0.277-0.526-0.555-0.789-0.833c-4.753,0.797-9.547,1.414-14.254,2.428
	c-10.916,2.351-21.508,5.576-30.37,12.815c-3.173,2.592-4.994,5.689-3.417,9.98c0.507,1.381,0.686,2.88,1.091,4.303
	c2.662,9.363,5.443,18.665,10.882,26.925c1.25,1.899,2.233,1.896,4.095,0.868c3.502-1.934,7.052-3.981,10.839-5.146
	c5.5-1.69,11.229-2.64,17.274-3.998C261.957,49.789,262.37,33.745,268.289,18.22z M162.643,169.121
	c-1.042,0.361-2.111,0.797-3.215,1.103c-8.631,2.388-17.182,5.343-26.361,4.277c-1.956-0.227-2.039,0.959-2.151,2.289
	c-0.525,6.208-1.604,12.431-1.436,18.619c0.202,7.448,1.42,14.872,2.287,22.295c0.389,3.336,2.638,4.395,5.757,4.558
	c7.488,0.393,14.778-0.478,21.787-3.162c4.961-1.9,9.844-4.004,14.392-5.866c-2.61-7.731-5.416-14.594-7.192-21.712
	C164.712,184.322,163.934,176.867,162.643,169.121z M240.238,169.176c-0.209,0.55-0.41,0.834-0.413,1.121
	c-0.176,14.327-4.102,27.742-9.96,40.667c-0.791,1.746,0.13,2.277,1.342,2.872c10.643,5.221,21.591,9.166,33.74,8.442
	c4.794-0.286,5.579-0.687,6.742-5.385c3.342-13.507,2.261-27.104,0.565-40.688c-0.081-0.646-1.217-1.735-1.729-1.664
	c-7.573,1.06-14.688-1.134-21.853-2.92C245.841,170.917,243.062,170.002,240.238,169.176z M224.533,79.838
	c-10.931-10.966-17.012-24.217-21.447-38.537c-5.126,15.239-13.946,27.778-25.704,38.524c11.344,11.917,20.072,24.89,22.815,41.342
	C205.985,106.062,211.021,90.717,224.533,79.838z"/>
</svg>
